<svg
    version="1.1"
    xmlns="http://www.w3.org/2000/svg"
    xmlns:xlink="http://www.w3.org/1999/xlink"
    width="205" height="205"
    >
  <defs>
    <rect id="s1" width="5" height="5" />
    <rect id="s2" width="5" height="5" />
    <line id="s3" x1="20" y1="0" x2="0" y2="5" />
    <line id="s4" x1="0" y1="0" x2="20" y2="5" />
  </defs>

  <symbol id="g5">
    <use xlink:href="#s3" fill="none" stroke-width="1" stroke="black" />
    <use xlink:href="#s4" fill="none" stroke-width="1" stroke="black" />
  </symbol>

  <symbol id="g6">
    <use xlink:href="#s2" fill="white" stroke-width="1" stroke="black" />
    <use xlink:href="#g5" />
  </symbol>

  <symbol id="default">
    <use xlink:href="#s1" x="20" y="20" fill="#9933CC" />
    <use xlink:href="#s1" x="25" y="20" fill="#9933CC" />
    <use xlink:href="#s1" x="30" y="20" fill="#9933CC" />
    <use xlink:href="#s1" x="35" y="20" fill="#9933CC" />
    <use xlink:href="#s1" x="40" y="20" fill="#9933CC" />
    <use xlink:href="#s1" x="45" y="20" fill="#9933CC" />
    <use xlink:href="#s1" x="50" y="20" fill="#9933CC" />
    <use xlink:href="#s1" x="65" y="20" fill="#9933CC" />
    <use xlink:href="#s1" x="70" y="20" fill="#9933CC" />
    <use xlink:href="#s1" x="80" y="20" fill="#9933CC" />
    <use xlink:href="#s1" x="90" y="20" fill="#9933CC" />
    <use xlink:href="#s1" x="95" y="20" fill="#9933CC" />
    <use xlink:href="#s1" x="100" y="20" fill="#9933CC" />
    <use xlink:href="#s1" x="105" y="20" fill="#9933CC" />
    <use xlink:href="#s1" x="115" y="20" fill="#9933CC" />
    <use xlink:href="#s1" x="125" y="20" fill="#9933CC" />
    <use xlink:href="#s1" x="135" y="20" fill="#9933CC" />
    <use xlink:href="#s1" x="140" y="20" fill="#9933CC" />
    <use xlink:href="#s1" x="150" y="20" fill="#9933CC" />
    <use xlink:href="#s1" x="155" y="20" fill="#9933CC" />
    <use xlink:href="#s1" x="160" y="20" fill="#9933CC" />
    <use xlink:href="#s1" x="165" y="20" fill="#9933CC" />
    <use xlink:href="#s1" x="170" y="20" fill="#9933CC" />
    <use xlink:href="#s1" x="175" y="20" fill="#9933CC" />
    <use xlink:href="#s1" x="180" y="20" fill="#9933CC" />
    <use xlink:href="#s1" x="20" y="25" fill="#9933CC" />
    <use xlink:href="#s1" x="50" y="25" fill="#9933CC" />
    <use xlink:href="#s1" x="60" y="25" fill="#9933CC" />
    <use xlink:href="#s1" x="65" y="25" fill="#9933CC" />
    <use xlink:href="#s1" x="80" y="25" fill="#9933CC" />
    <use xlink:href="#s1" x="85" y="25" fill="#9933CC" />
    <use xlink:href="#s1" x="90" y="25" fill="#9933CC" />
    <use xlink:href="#s1" x="100" y="25" fill="#9933CC" />
    <use xlink:href="#s1" x="105" y="25" fill="#9933CC" />
    <use xlink:href="#s1" x="120" y="25" fill="#9933CC" />
    <use xlink:href="#s1" x="125" y="25" fill="#9933CC" />
    <use xlink:href="#s1" x="130" y="25" fill="#9933CC" />
    <use xlink:href="#s1" x="140" y="25" fill="#9933CC" />
    <use xlink:href="#s1" x="150" y="25" fill="#9933CC" />
    <use xlink:href="#s1" x="180" y="25" fill="#9933CC" />
    <use xlink:href="#s1" x="20" y="30" fill="#9933CC" />
    <use xlink:href="#s1" x="30" y="30" fill="#9933CC" />
    <use xlink:href="#s1" x="35" y="30" fill="#9933CC" />
    <use xlink:href="#s1" x="40" y="30" fill="#9933CC" />
    <use xlink:href="#s1" x="50" y="30" fill="#9933CC" />
    <use xlink:href="#s1" x="65" y="30" fill="#9933CC" />
    <use xlink:href="#s1" x="90" y="30" fill="#9933CC" />
    <use xlink:href="#s1" x="95" y="30" fill="#9933CC" />
    <use xlink:href="#s1" x="100" y="30" fill="#9933CC" />
    <use xlink:href="#s1" x="105" y="30" fill="#9933CC" />
    <use xlink:href="#s1" x="120" y="30" fill="#9933CC" />
    <use xlink:href="#s1" x="125" y="30" fill="#9933CC" />
    <use xlink:href="#s1" x="130" y="30" fill="#9933CC" />
    <use xlink:href="#s1" x="150" y="30" fill="#9933CC" />
    <use xlink:href="#s1" x="160" y="30" fill="#9933CC" />
    <use xlink:href="#s1" x="165" y="30" fill="#9933CC" />
    <use xlink:href="#s1" x="170" y="30" fill="#9933CC" />
    <use xlink:href="#s1" x="180" y="30" fill="#9933CC" />
    <use xlink:href="#s1" x="20" y="35" fill="#9933CC" />
    <use xlink:href="#s1" x="30" y="35" fill="#9933CC" />
    <use xlink:href="#s1" x="35" y="35" fill="#9933CC" />
    <use xlink:href="#s1" x="40" y="35" fill="#9933CC" />
    <use xlink:href="#s1" x="50" y="35" fill="#9933CC" />
    <use xlink:href="#s1" x="65" y="35" fill="#9933CC" />
    <use xlink:href="#s1" x="70" y="35" fill="#9933CC" />
    <use xlink:href="#s1" x="75" y="35" fill="#9933CC" />
    <use xlink:href="#s1" x="80" y="35" fill="#9933CC" />
    <use xlink:href="#s1" x="90" y="35" fill="#9933CC" />
    <use xlink:href="#s1" x="95" y="35" fill="#9933CC" />
    <use xlink:href="#s1" x="110" y="35" fill="#9933CC" />
    <use xlink:href="#s1" x="140" y="35" fill="#9933CC" />
    <use xlink:href="#s1" x="150" y="35" fill="#9933CC" />
    <use xlink:href="#s1" x="160" y="35" fill="#9933CC" />
    <use xlink:href="#s1" x="165" y="35" fill="#9933CC" />
    <use xlink:href="#s1" x="170" y="35" fill="#9933CC" />
    <use xlink:href="#s1" x="180" y="35" fill="#9933CC" />
    <use xlink:href="#s1" x="20" y="40" fill="#9933CC" />
    <use xlink:href="#s1" x="30" y="40" fill="#9933CC" />
    <use xlink:href="#s1" x="35" y="40" fill="#9933CC" />
    <use xlink:href="#s1" x="40" y="40" fill="#9933CC" />
    <use xlink:href="#s1" x="50" y="40" fill="#9933CC" />
    <use xlink:href="#s1" x="70" y="40" fill="#9933CC" />
    <use xlink:href="#s1" x="100" y="40" fill="#9933CC" />
    <use xlink:href="#s1" x="110" y="40" fill="#9933CC" />
    <use xlink:href="#s1" x="120" y="40" fill="#9933CC" />
    <use xlink:href="#s1" x="125" y="40" fill="#9933CC" />
    <use xlink:href="#s1" x="140" y="40" fill="#9933CC" />
    <use xlink:href="#s1" x="150" y="40" fill="#9933CC" />
    <use xlink:href="#s1" x="160" y="40" fill="#9933CC" />
    <use xlink:href="#s1" x="165" y="40" fill="#9933CC" />
    <use xlink:href="#s1" x="170" y="40" fill="#9933CC" />
    <use xlink:href="#s1" x="180" y="40" fill="#9933CC" />
    <use xlink:href="#s1" x="20" y="45" fill="#9933CC" />
    <use xlink:href="#s1" x="50" y="45" fill="#9933CC" />
    <use xlink:href="#s1" x="60" y="45" fill="#9933CC" />
    <use xlink:href="#s1" x="70" y="45" fill="#9933CC" />
    <use xlink:href="#s1" x="85" y="45" fill="#9933CC" />
    <use xlink:href="#s1" x="90" y="45" fill="#9933CC" />
    <use xlink:href="#s1" x="95" y="45" fill="#9933CC" />
    <use xlink:href="#s1" x="100" y="45" fill="#9933CC" />
    <use xlink:href="#s1" x="120" y="45" fill="#9933CC" />
    <use xlink:href="#s1" x="125" y="45" fill="#9933CC" />
    <use xlink:href="#s1" x="130" y="45" fill="#9933CC" />
    <use xlink:href="#s1" x="150" y="45" fill="#9933CC" />
    <use xlink:href="#s1" x="180" y="45" fill="#9933CC" />
    <use xlink:href="#s1" x="20" y="50" fill="#9933CC" />
    <use xlink:href="#s1" x="25" y="50" fill="#9933CC" />
    <use xlink:href="#s1" x="30" y="50" fill="#9933CC" />
    <use xlink:href="#s1" x="35" y="50" fill="#9933CC" />
    <use xlink:href="#s1" x="40" y="50" fill="#9933CC" />
    <use xlink:href="#s1" x="45" y="50" fill="#9933CC" />
    <use xlink:href="#s1" x="50" y="50" fill="#9933CC" />
    <use xlink:href="#s1" x="60" y="50" fill="#9933CC" />
    <use xlink:href="#s1" x="70" y="50" fill="#9933CC" />
    <use xlink:href="#s1" x="80" y="50" fill="#9933CC" />
    <use xlink:href="#s1" x="90" y="50" fill="#9933CC" />
    <use xlink:href="#s1" x="100" y="50" fill="#9933CC" />
    <use xlink:href="#s1" x="110" y="50" fill="#9933CC" />
    <use xlink:href="#s1" x="120" y="50" fill="#9933CC" />
    <use xlink:href="#s1" x="130" y="50" fill="#9933CC" />
    <use xlink:href="#s1" x="140" y="50" fill="#9933CC" />
    <use xlink:href="#s1" x="150" y="50" fill="#9933CC" />
    <use xlink:href="#s1" x="155" y="50" fill="#9933CC" />
    <use xlink:href="#s1" x="160" y="50" fill="#9933CC" />
    <use xlink:href="#s1" x="165" y="50" fill="#9933CC" />
    <use xlink:href="#s1" x="170" y="50" fill="#9933CC" />
    <use xlink:href="#s1" x="175" y="50" fill="#9933CC" />
    <use xlink:href="#s1" x="180" y="50" fill="#9933CC" />
    <use xlink:href="#s1" x="60" y="55" fill="#9933CC" />
    <use xlink:href="#s1" x="80" y="55" fill="#9933CC" />
    <use xlink:href="#s1" x="85" y="55" fill="#9933CC" />
    <use xlink:href="#s1" x="95" y="55" fill="#9933CC" />
    <use xlink:href="#s1" x="100" y="55" fill="#9933CC" />
    <use xlink:href="#s1" x="110" y="55" fill="#9933CC" />
    <use xlink:href="#s1" x="115" y="55" fill="#9933CC" />
    <use xlink:href="#s1" x="120" y="55" fill="#9933CC" />
    <use xlink:href="#s1" x="125" y="55" fill="#9933CC" />
    <use xlink:href="#s1" x="135" y="55" fill="#9933CC" />
    <use xlink:href="#s1" x="40" y="60" fill="#9933CC" />
    <use xlink:href="#s1" x="45" y="60" fill="#9933CC" />
    <use xlink:href="#s1" x="50" y="60" fill="#9933CC" />
    <use xlink:href="#s1" x="55" y="60" fill="#9933CC" />
    <use xlink:href="#s1" x="65" y="60" fill="#9933CC" />
    <use xlink:href="#s1" x="70" y="60" fill="#9933CC" />
    <use xlink:href="#s1" x="75" y="60" fill="#9933CC" />
    <use xlink:href="#s1" x="80" y="60" fill="#9933CC" />
    <use xlink:href="#s1" x="85" y="60" fill="#9933CC" />
    <use xlink:href="#s1" x="95" y="60" fill="#9933CC" />
    <use xlink:href="#s1" x="110" y="60" fill="#9933CC" />
    <use xlink:href="#s1" x="115" y="60" fill="#9933CC" />
    <use xlink:href="#s1" x="120" y="60" fill="#9933CC" />
    <use xlink:href="#s1" x="125" y="60" fill="#9933CC" />
    <use xlink:href="#s1" x="130" y="60" fill="#9933CC" />
    <use xlink:href="#s1" x="140" y="60" fill="#9933CC" />
    <use xlink:href="#s1" x="150" y="60" fill="#9933CC" />
    <use xlink:href="#s1" x="155" y="60" fill="#9933CC" />
    <use xlink:href="#s1" x="175" y="60" fill="#9933CC" />
    <use xlink:href="#s1" x="25" y="65" fill="#9933CC" />
    <use xlink:href="#s1" x="40" y="65" fill="#9933CC" />
    <use xlink:href="#s1" x="45" y="65" fill="#9933CC" />
    <use xlink:href="#s1" x="55" y="65" fill="#9933CC" />
    <use xlink:href="#s1" x="60" y="65" fill="#9933CC" />
    <use xlink:href="#s1" x="80" y="65" fill="#9933CC" />
    <use xlink:href="#s1" x="100" y="65" fill="#9933CC" />
    <use xlink:href="#s1" x="115" y="65" fill="#9933CC" />
    <use xlink:href="#s1" x="125" y="65" fill="#9933CC" />
    <use xlink:href="#s1" x="135" y="65" fill="#9933CC" />
    <use xlink:href="#s1" x="155" y="65" fill="#9933CC" />
    <use xlink:href="#s1" x="165" y="65" fill="#9933CC" />
    <use xlink:href="#s1" x="175" y="65" fill="#9933CC" />
    <use xlink:href="#s1" x="20" y="70" fill="#9933CC" />
    <use xlink:href="#s1" x="25" y="70" fill="#9933CC" />
    <use xlink:href="#s1" x="35" y="70" fill="#9933CC" />
    <use xlink:href="#s1" x="40" y="70" fill="#9933CC" />
    <use xlink:href="#s1" x="50" y="70" fill="#9933CC" />
    <use xlink:href="#s1" x="55" y="70" fill="#9933CC" />
    <use xlink:href="#s1" x="60" y="70" fill="#9933CC" />
    <use xlink:href="#s1" x="65" y="70" fill="#9933CC" />
    <use xlink:href="#s1" x="80" y="70" fill="#9933CC" />
    <use xlink:href="#s1" x="90" y="70" fill="#9933CC" />
    <use xlink:href="#s1" x="105" y="70" fill="#9933CC" />
    <use xlink:href="#s1" x="110" y="70" fill="#9933CC" />
    <use xlink:href="#s1" x="135" y="70" fill="#9933CC" />
    <use xlink:href="#s1" x="140" y="70" fill="#9933CC" />
    <use xlink:href="#s1" x="150" y="70" fill="#9933CC" />
    <use xlink:href="#s1" x="155" y="70" fill="#9933CC" />
    <use xlink:href="#s1" x="160" y="70" fill="#9933CC" />
    <use xlink:href="#s1" x="175" y="70" fill="#9933CC" />
    <use xlink:href="#s1" x="25" y="75" fill="#9933CC" />
    <use xlink:href="#s1" x="35" y="75" fill="#9933CC" />
    <use xlink:href="#s1" x="55" y="75" fill="#9933CC" />
    <use xlink:href="#s1" x="80" y="75" fill="#9933CC" />
    <use xlink:href="#s1" x="95" y="75" fill="#9933CC" />
    <use xlink:href="#s1" x="100" y="75" fill="#9933CC" />
    <use xlink:href="#s1" x="105" y="75" fill="#9933CC" />
    <use xlink:href="#s1" x="120" y="75" fill="#9933CC" />
    <use xlink:href="#s1" x="130" y="75" fill="#9933CC" />
    <use xlink:href="#s1" x="135" y="75" fill="#9933CC" />
    <use xlink:href="#s1" x="140" y="75" fill="#9933CC" />
    <use xlink:href="#s1" x="160" y="75" fill="#9933CC" />
    <use xlink:href="#s1" x="165" y="75" fill="#9933CC" />
    <use xlink:href="#s1" x="175" y="75" fill="#9933CC" />
    <use xlink:href="#s1" x="180" y="75" fill="#9933CC" />
    <use xlink:href="#s1" x="20" y="80" fill="#9933CC" />
    <use xlink:href="#s1" x="30" y="80" fill="#9933CC" />
    <use xlink:href="#s1" x="45" y="80" fill="#9933CC" />
    <use xlink:href="#s1" x="50" y="80" fill="#9933CC" />
    <use xlink:href="#s1" x="65" y="80" fill="#9933CC" />
    <use xlink:href="#s1" x="75" y="80" fill="#9933CC" />
    <use xlink:href="#s1" x="90" y="80" fill="#9933CC" />
    <use xlink:href="#s1" x="100" y="80" fill="#9933CC" />
    <use xlink:href="#s1" x="110" y="80" fill="#9933CC" />
    <use xlink:href="#s1" x="130" y="80" fill="#9933CC" />
    <use xlink:href="#s1" x="135" y="80" fill="#9933CC" />
    <use xlink:href="#s1" x="140" y="80" fill="#9933CC" />
    <use xlink:href="#s1" x="150" y="80" fill="#9933CC" />
    <use xlink:href="#s1" x="180" y="80" fill="#9933CC" />
    <use xlink:href="#s1" x="25" y="85" fill="#9933CC" />
    <use xlink:href="#s1" x="30" y="85" fill="#9933CC" />
    <use xlink:href="#s1" x="60" y="85" fill="#9933CC" />
    <use xlink:href="#s1" x="75" y="85" fill="#9933CC" />
    <use xlink:href="#s1" x="85" y="85" fill="#9933CC" />
    <use xlink:href="#s1" x="95" y="85" fill="#9933CC" />
    <use xlink:href="#s1" x="100" y="85" fill="#9933CC" />
    <use xlink:href="#s1" x="105" y="85" fill="#9933CC" />
    <use xlink:href="#s1" x="115" y="85" fill="#9933CC" />
    <use xlink:href="#s1" x="125" y="85" fill="#9933CC" />
    <use xlink:href="#s1" x="135" y="85" fill="#9933CC" />
    <use xlink:href="#s1" x="140" y="85" fill="#9933CC" />
    <use xlink:href="#s1" x="155" y="85" fill="#9933CC" />
    <use xlink:href="#s1" x="160" y="85" fill="#9933CC" />
    <use xlink:href="#s1" x="165" y="85" fill="#9933CC" />
    <use xlink:href="#s1" x="175" y="85" fill="#9933CC" />
    <use xlink:href="#s1" x="20" y="90" fill="#9933CC" />
    <use xlink:href="#s1" x="30" y="90" fill="#9933CC" />
    <use xlink:href="#s1" x="35" y="90" fill="#9933CC" />
    <use xlink:href="#s1" x="40" y="90" fill="#9933CC" />
    <use xlink:href="#s1" x="50" y="90" fill="#9933CC" />
    <use xlink:href="#s1" x="55" y="90" fill="#9933CC" />
    <use xlink:href="#s1" x="65" y="90" fill="#9933CC" />
    <use xlink:href="#s1" x="70" y="90" fill="#9933CC" />
    <use xlink:href="#s1" x="80" y="90" fill="#9933CC" />
    <use xlink:href="#s1" x="85" y="90" fill="#9933CC" />
    <use xlink:href="#s1" x="90" y="90" fill="#9933CC" />
    <use xlink:href="#s1" x="105" y="90" fill="#9933CC" />
    <use xlink:href="#s1" x="110" y="90" fill="#9933CC" />
    <use xlink:href="#s1" x="115" y="90" fill="#9933CC" />
    <use xlink:href="#s1" x="135" y="90" fill="#9933CC" />
    <use xlink:href="#s1" x="150" y="90" fill="#9933CC" />
    <use xlink:href="#s1" x="155" y="90" fill="#9933CC" />
    <use xlink:href="#s1" x="165" y="90" fill="#9933CC" />
    <use xlink:href="#s1" x="170" y="90" fill="#9933CC" />
    <use xlink:href="#s1" x="175" y="90" fill="#9933CC" />
    <use xlink:href="#s1" x="20" y="95" fill="#9933CC" />
    <use xlink:href="#s1" x="25" y="95" fill="#9933CC" />
    <use xlink:href="#s1" x="35" y="95" fill="#9933CC" />
    <use xlink:href="#s1" x="45" y="95" fill="#9933CC" />
    <use xlink:href="#s1" x="65" y="95" fill="#9933CC" />
    <use xlink:href="#s1" x="80" y="95" fill="#9933CC" />
    <use xlink:href="#s1" x="85" y="95" fill="#9933CC" />
    <use xlink:href="#s1" x="90" y="95" fill="#9933CC" />
    <use xlink:href="#s1" x="95" y="95" fill="#9933CC" />
    <use xlink:href="#s1" x="100" y="95" fill="#9933CC" />
    <use xlink:href="#s1" x="105" y="95" fill="#9933CC" />
    <use xlink:href="#s1" x="115" y="95" fill="#9933CC" />
    <use xlink:href="#s1" x="120" y="95" fill="#9933CC" />
    <use xlink:href="#s1" x="125" y="95" fill="#9933CC" />
    <use xlink:href="#s1" x="145" y="95" fill="#9933CC" />
    <use xlink:href="#s1" x="170" y="95" fill="#9933CC" />
    <use xlink:href="#s1" x="180" y="95" fill="#9933CC" />
    <use xlink:href="#s1" x="30" y="100" fill="#9933CC" />
    <use xlink:href="#s1" x="35" y="100" fill="#9933CC" />
    <use xlink:href="#s1" x="50" y="100" fill="#9933CC" />
    <use xlink:href="#s1" x="55" y="100" fill="#9933CC" />
    <use xlink:href="#s1" x="80" y="100" fill="#9933CC" />
    <use xlink:href="#s1" x="100" y="100" fill="#9933CC" />
    <use xlink:href="#s1" x="105" y="100" fill="#9933CC" />
    <use xlink:href="#s1" x="110" y="100" fill="#9933CC" />
    <use xlink:href="#s1" x="120" y="100" fill="#9933CC" />
    <use xlink:href="#s1" x="125" y="100" fill="#9933CC" />
    <use xlink:href="#s1" x="150" y="100" fill="#9933CC" />
    <use xlink:href="#s1" x="160" y="100" fill="#9933CC" />
    <use xlink:href="#s1" x="170" y="100" fill="#9933CC" />
    <use xlink:href="#s1" x="175" y="100" fill="#9933CC" />
    <use xlink:href="#s1" x="20" y="105" fill="#9933CC" />
    <use xlink:href="#s1" x="25" y="105" fill="#9933CC" />
    <use xlink:href="#s1" x="30" y="105" fill="#9933CC" />
    <use xlink:href="#s1" x="45" y="105" fill="#9933CC" />
    <use xlink:href="#s1" x="60" y="105" fill="#9933CC" />
    <use xlink:href="#s1" x="70" y="105" fill="#9933CC" />
    <use xlink:href="#s1" x="80" y="105" fill="#9933CC" />
    <use xlink:href="#s1" x="90" y="105" fill="#9933CC" />
    <use xlink:href="#s1" x="95" y="105" fill="#9933CC" />
    <use xlink:href="#s1" x="100" y="105" fill="#9933CC" />
    <use xlink:href="#s1" x="105" y="105" fill="#9933CC" />
    <use xlink:href="#s1" x="135" y="105" fill="#9933CC" />
    <use xlink:href="#s1" x="140" y="105" fill="#9933CC" />
    <use xlink:href="#s1" x="145" y="105" fill="#9933CC" />
    <use xlink:href="#s1" x="155" y="105" fill="#9933CC" />
    <use xlink:href="#s1" x="175" y="105" fill="#9933CC" />
    <use xlink:href="#s1" x="180" y="105" fill="#9933CC" />
    <use xlink:href="#s1" x="20" y="110" fill="#9933CC" />
    <use xlink:href="#s1" x="35" y="110" fill="#9933CC" />
    <use xlink:href="#s1" x="45" y="110" fill="#9933CC" />
    <use xlink:href="#s1" x="50" y="110" fill="#9933CC" />
    <use xlink:href="#s1" x="65" y="110" fill="#9933CC" />
    <use xlink:href="#s1" x="80" y="110" fill="#9933CC" />
    <use xlink:href="#s1" x="100" y="110" fill="#9933CC" />
    <use xlink:href="#s1" x="105" y="110" fill="#9933CC" />
    <use xlink:href="#s1" x="115" y="110" fill="#9933CC" />
    <use xlink:href="#s1" x="130" y="110" fill="#9933CC" />
    <use xlink:href="#s1" x="135" y="110" fill="#9933CC" />
    <use xlink:href="#s1" x="140" y="110" fill="#9933CC" />
    <use xlink:href="#s1" x="165" y="110" fill="#9933CC" />
    <use xlink:href="#s1" x="30" y="115" fill="#9933CC" />
    <use xlink:href="#s1" x="35" y="115" fill="#9933CC" />
    <use xlink:href="#s1" x="40" y="115" fill="#9933CC" />
    <use xlink:href="#s1" x="55" y="115" fill="#9933CC" />
    <use xlink:href="#s1" x="65" y="115" fill="#9933CC" />
    <use xlink:href="#s1" x="70" y="115" fill="#9933CC" />
    <use xlink:href="#s1" x="75" y="115" fill="#9933CC" />
    <use xlink:href="#s1" x="95" y="115" fill="#9933CC" />
    <use xlink:href="#s1" x="110" y="115" fill="#9933CC" />
    <use xlink:href="#s1" x="120" y="115" fill="#9933CC" />
    <use xlink:href="#s1" x="125" y="115" fill="#9933CC" />
    <use xlink:href="#s1" x="145" y="115" fill="#9933CC" />
    <use xlink:href="#s1" x="155" y="115" fill="#9933CC" />
    <use xlink:href="#s1" x="160" y="115" fill="#9933CC" />
    <use xlink:href="#s1" x="175" y="115" fill="#9933CC" />
    <use xlink:href="#s1" x="20" y="120" fill="#9933CC" />
    <use xlink:href="#s1" x="35" y="120" fill="#9933CC" />
    <use xlink:href="#s1" x="45" y="120" fill="#9933CC" />
    <use xlink:href="#s1" x="50" y="120" fill="#9933CC" />
    <use xlink:href="#s1" x="55" y="120" fill="#9933CC" />
    <use xlink:href="#s1" x="60" y="120" fill="#9933CC" />
    <use xlink:href="#s1" x="65" y="120" fill="#9933CC" />
    <use xlink:href="#s1" x="75" y="120" fill="#9933CC" />
    <use xlink:href="#s1" x="90" y="120" fill="#9933CC" />
    <use xlink:href="#s1" x="95" y="120" fill="#9933CC" />
    <use xlink:href="#s1" x="100" y="120" fill="#9933CC" />
    <use xlink:href="#s1" x="105" y="120" fill="#9933CC" />
    <use xlink:href="#s1" x="110" y="120" fill="#9933CC" />
    <use xlink:href="#s1" x="115" y="120" fill="#9933CC" />
    <use xlink:href="#s1" x="120" y="120" fill="#9933CC" />
    <use xlink:href="#s1" x="125" y="120" fill="#9933CC" />
    <use xlink:href="#s1" x="130" y="120" fill="#9933CC" />
    <use xlink:href="#s1" x="140" y="120" fill="#9933CC" />
    <use xlink:href="#s1" x="145" y="120" fill="#9933CC" />
    <use xlink:href="#s1" x="150" y="120" fill="#9933CC" />
    <use xlink:href="#s1" x="160" y="120" fill="#9933CC" />
    <use xlink:href="#s1" x="165" y="120" fill="#9933CC" />
    <use xlink:href="#s1" x="180" y="120" fill="#9933CC" />
    <use xlink:href="#s1" x="20" y="125" fill="#9933CC" />
    <use xlink:href="#s1" x="25" y="125" fill="#9933CC" />
    <use xlink:href="#s1" x="35" y="125" fill="#9933CC" />
    <use xlink:href="#s1" x="45" y="125" fill="#9933CC" />
    <use xlink:href="#s1" x="55" y="125" fill="#9933CC" />
    <use xlink:href="#s1" x="65" y="125" fill="#9933CC" />
    <use xlink:href="#s1" x="80" y="125" fill="#9933CC" />
    <use xlink:href="#s1" x="100" y="125" fill="#9933CC" />
    <use xlink:href="#s1" x="105" y="125" fill="#9933CC" />
    <use xlink:href="#s1" x="115" y="125" fill="#9933CC" />
    <use xlink:href="#s1" x="125" y="125" fill="#9933CC" />
    <use xlink:href="#s1" x="150" y="125" fill="#9933CC" />
    <use xlink:href="#s1" x="155" y="125" fill="#9933CC" />
    <use xlink:href="#s1" x="175" y="125" fill="#9933CC" />
    <use xlink:href="#s1" x="30" y="130" fill="#9933CC" />
    <use xlink:href="#s1" x="45" y="130" fill="#9933CC" />
    <use xlink:href="#s1" x="50" y="130" fill="#9933CC" />
    <use xlink:href="#s1" x="65" y="130" fill="#9933CC" />
    <use xlink:href="#s1" x="75" y="130" fill="#9933CC" />
    <use xlink:href="#s1" x="85" y="130" fill="#9933CC" />
    <use xlink:href="#s1" x="90" y="130" fill="#9933CC" />
    <use xlink:href="#s1" x="95" y="130" fill="#9933CC" />
    <use xlink:href="#s1" x="100" y="130" fill="#9933CC" />
    <use xlink:href="#s1" x="105" y="130" fill="#9933CC" />
    <use xlink:href="#s1" x="120" y="130" fill="#9933CC" />
    <use xlink:href="#s1" x="155" y="130" fill="#9933CC" />
    <use xlink:href="#s1" x="160" y="130" fill="#9933CC" />
    <use xlink:href="#s1" x="175" y="130" fill="#9933CC" />
    <use xlink:href="#s1" x="30" y="135" fill="#9933CC" />
    <use xlink:href="#s1" x="35" y="135" fill="#9933CC" />
    <use xlink:href="#s1" x="45" y="135" fill="#9933CC" />
    <use xlink:href="#s1" x="60" y="135" fill="#9933CC" />
    <use xlink:href="#s1" x="65" y="135" fill="#9933CC" />
    <use xlink:href="#s1" x="70" y="135" fill="#9933CC" />
    <use xlink:href="#s1" x="75" y="135" fill="#9933CC" />
    <use xlink:href="#s1" x="85" y="135" fill="#9933CC" />
    <use xlink:href="#s1" x="105" y="135" fill="#9933CC" />
    <use xlink:href="#s1" x="110" y="135" fill="#9933CC" />
    <use xlink:href="#s1" x="125" y="135" fill="#9933CC" />
    <use xlink:href="#s1" x="130" y="135" fill="#9933CC" />
    <use xlink:href="#s1" x="140" y="135" fill="#9933CC" />
    <use xlink:href="#s1" x="160" y="135" fill="#9933CC" />
    <use xlink:href="#s1" x="175" y="135" fill="#9933CC" />
    <use xlink:href="#s1" x="180" y="135" fill="#9933CC" />
    <use xlink:href="#s1" x="20" y="140" fill="#9933CC" />
    <use xlink:href="#s1" x="25" y="140" fill="#9933CC" />
    <use xlink:href="#s1" x="30" y="140" fill="#9933CC" />
    <use xlink:href="#s1" x="35" y="140" fill="#9933CC" />
    <use xlink:href="#s1" x="40" y="140" fill="#9933CC" />
    <use xlink:href="#s1" x="45" y="140" fill="#9933CC" />
    <use xlink:href="#s1" x="50" y="140" fill="#9933CC" />
    <use xlink:href="#s1" x="80" y="140" fill="#9933CC" />
    <use xlink:href="#s1" x="85" y="140" fill="#9933CC" />
    <use xlink:href="#s1" x="100" y="140" fill="#9933CC" />
    <use xlink:href="#s1" x="105" y="140" fill="#9933CC" />
    <use xlink:href="#s1" x="115" y="140" fill="#9933CC" />
    <use xlink:href="#s1" x="125" y="140" fill="#9933CC" />
    <use xlink:href="#s1" x="130" y="140" fill="#9933CC" />
    <use xlink:href="#s1" x="135" y="140" fill="#9933CC" />
    <use xlink:href="#s1" x="140" y="140" fill="#9933CC" />
    <use xlink:href="#s1" x="145" y="140" fill="#9933CC" />
    <use xlink:href="#s1" x="150" y="140" fill="#9933CC" />
    <use xlink:href="#s1" x="155" y="140" fill="#9933CC" />
    <use xlink:href="#s1" x="160" y="140" fill="#9933CC" />
    <use xlink:href="#s1" x="165" y="140" fill="#9933CC" />
    <use xlink:href="#s1" x="60" y="145" fill="#9933CC" />
    <use xlink:href="#s1" x="75" y="145" fill="#9933CC" />
    <use xlink:href="#s1" x="80" y="145" fill="#9933CC" />
    <use xlink:href="#s1" x="90" y="145" fill="#9933CC" />
    <use xlink:href="#s1" x="110" y="145" fill="#9933CC" />
    <use xlink:href="#s1" x="115" y="145" fill="#9933CC" />
    <use xlink:href="#s1" x="140" y="145" fill="#9933CC" />
    <use xlink:href="#s1" x="160" y="145" fill="#9933CC" />
    <use xlink:href="#s1" x="165" y="145" fill="#9933CC" />
    <use xlink:href="#s1" x="175" y="145" fill="#9933CC" />
    <use xlink:href="#s1" x="20" y="150" fill="#9933CC" />
    <use xlink:href="#s1" x="25" y="150" fill="#9933CC" />
    <use xlink:href="#s1" x="30" y="150" fill="#9933CC" />
    <use xlink:href="#s1" x="35" y="150" fill="#9933CC" />
    <use xlink:href="#s1" x="40" y="150" fill="#9933CC" />
    <use xlink:href="#s1" x="45" y="150" fill="#9933CC" />
    <use xlink:href="#s1" x="50" y="150" fill="#9933CC" />
    <use xlink:href="#s1" x="60" y="150" fill="#9933CC" />
    <use xlink:href="#s1" x="90" y="150" fill="#9933CC" />
    <use xlink:href="#s1" x="105" y="150" fill="#9933CC" />
    <use xlink:href="#s1" x="110" y="150" fill="#9933CC" />
    <use xlink:href="#s1" x="120" y="150" fill="#9933CC" />
    <use xlink:href="#s1" x="125" y="150" fill="#9933CC" />
    <use xlink:href="#s1" x="130" y="150" fill="#9933CC" />
    <use xlink:href="#s1" x="140" y="150" fill="#9933CC" />
    <use xlink:href="#s1" x="150" y="150" fill="#9933CC" />
    <use xlink:href="#s1" x="160" y="150" fill="#9933CC" />
    <use xlink:href="#s1" x="170" y="150" fill="#9933CC" />
    <use xlink:href="#s1" x="175" y="150" fill="#9933CC" />
    <use xlink:href="#s1" x="20" y="155" fill="#9933CC" />
    <use xlink:href="#s1" x="50" y="155" fill="#9933CC" />
    <use xlink:href="#s1" x="60" y="155" fill="#9933CC" />
    <use xlink:href="#s1" x="65" y="155" fill="#9933CC" />
    <use xlink:href="#s1" x="75" y="155" fill="#9933CC" />
    <use xlink:href="#s1" x="80" y="155" fill="#9933CC" />
    <use xlink:href="#s1" x="85" y="155" fill="#9933CC" />
    <use xlink:href="#s1" x="90" y="155" fill="#9933CC" />
    <use xlink:href="#s1" x="95" y="155" fill="#9933CC" />
    <use xlink:href="#s1" x="100" y="155" fill="#9933CC" />
    <use xlink:href="#s1" x="105" y="155" fill="#9933CC" />
    <use xlink:href="#s1" x="120" y="155" fill="#9933CC" />
    <use xlink:href="#s1" x="125" y="155" fill="#9933CC" />
    <use xlink:href="#s1" x="140" y="155" fill="#9933CC" />
    <use xlink:href="#s1" x="160" y="155" fill="#9933CC" />
    <use xlink:href="#s1" x="175" y="155" fill="#9933CC" />
    <use xlink:href="#s1" x="180" y="155" fill="#9933CC" />
    <use xlink:href="#s1" x="20" y="160" fill="#9933CC" />
    <use xlink:href="#s1" x="30" y="160" fill="#9933CC" />
    <use xlink:href="#s1" x="35" y="160" fill="#9933CC" />
    <use xlink:href="#s1" x="40" y="160" fill="#9933CC" />
    <use xlink:href="#s1" x="50" y="160" fill="#9933CC" />
    <use xlink:href="#s1" x="60" y="160" fill="#9933CC" />
    <use xlink:href="#s1" x="70" y="160" fill="#9933CC" />
    <use xlink:href="#s1" x="85" y="160" fill="#9933CC" />
    <use xlink:href="#s1" x="100" y="160" fill="#9933CC" />
    <use xlink:href="#s1" x="110" y="160" fill="#9933CC" />
    <use xlink:href="#s1" x="115" y="160" fill="#9933CC" />
    <use xlink:href="#s1" x="120" y="160" fill="#9933CC" />
    <use xlink:href="#s1" x="140" y="160" fill="#9933CC" />
    <use xlink:href="#s1" x="145" y="160" fill="#9933CC" />
    <use xlink:href="#s1" x="150" y="160" fill="#9933CC" />
    <use xlink:href="#s1" x="155" y="160" fill="#9933CC" />
    <use xlink:href="#s1" x="160" y="160" fill="#9933CC" />
    <use xlink:href="#s1" x="165" y="160" fill="#9933CC" />
    <use xlink:href="#s1" x="20" y="165" fill="#9933CC" />
    <use xlink:href="#s1" x="30" y="165" fill="#9933CC" />
    <use xlink:href="#s1" x="35" y="165" fill="#9933CC" />
    <use xlink:href="#s1" x="40" y="165" fill="#9933CC" />
    <use xlink:href="#s1" x="50" y="165" fill="#9933CC" />
    <use xlink:href="#s1" x="70" y="165" fill="#9933CC" />
    <use xlink:href="#s1" x="75" y="165" fill="#9933CC" />
    <use xlink:href="#s1" x="80" y="165" fill="#9933CC" />
    <use xlink:href="#s1" x="85" y="165" fill="#9933CC" />
    <use xlink:href="#s1" x="90" y="165" fill="#9933CC" />
    <use xlink:href="#s1" x="100" y="165" fill="#9933CC" />
    <use xlink:href="#s1" x="105" y="165" fill="#9933CC" />
    <use xlink:href="#s1" x="120" y="165" fill="#9933CC" />
    <use xlink:href="#s1" x="125" y="165" fill="#9933CC" />
    <use xlink:href="#s1" x="130" y="165" fill="#9933CC" />
    <use xlink:href="#s1" x="135" y="165" fill="#9933CC" />
    <use xlink:href="#s1" x="140" y="165" fill="#9933CC" />
    <use xlink:href="#s1" x="150" y="165" fill="#9933CC" />
    <use xlink:href="#s1" x="155" y="165" fill="#9933CC" />
    <use xlink:href="#s1" x="160" y="165" fill="#9933CC" />
    <use xlink:href="#s1" x="170" y="165" fill="#9933CC" />
    <use xlink:href="#s1" x="180" y="165" fill="#9933CC" />
    <use xlink:href="#s1" x="20" y="170" fill="#9933CC" />
    <use xlink:href="#s1" x="30" y="170" fill="#9933CC" />
    <use xlink:href="#s1" x="35" y="170" fill="#9933CC" />
    <use xlink:href="#s1" x="40" y="170" fill="#9933CC" />
    <use xlink:href="#s1" x="50" y="170" fill="#9933CC" />
    <use xlink:href="#s1" x="70" y="170" fill="#9933CC" />
    <use xlink:href="#s1" x="75" y="170" fill="#9933CC" />
    <use xlink:href="#s1" x="80" y="170" fill="#9933CC" />
    <use xlink:href="#s1" x="95" y="170" fill="#9933CC" />
    <use xlink:href="#s1" x="105" y="170" fill="#9933CC" />
    <use xlink:href="#s1" x="120" y="170" fill="#9933CC" />
    <use xlink:href="#s1" x="140" y="170" fill="#9933CC" />
    <use xlink:href="#s1" x="145" y="170" fill="#9933CC" />
    <use xlink:href="#s1" x="150" y="170" fill="#9933CC" />
    <use xlink:href="#s1" x="160" y="170" fill="#9933CC" />
    <use xlink:href="#s1" x="20" y="175" fill="#9933CC" />
    <use xlink:href="#s1" x="50" y="175" fill="#9933CC" />
    <use xlink:href="#s1" x="65" y="175" fill="#9933CC" />
    <use xlink:href="#s1" x="75" y="175" fill="#9933CC" />
    <use xlink:href="#s1" x="80" y="175" fill="#9933CC" />
    <use xlink:href="#s1" x="85" y="175" fill="#9933CC" />
    <use xlink:href="#s1" x="90" y="175" fill="#9933CC" />
    <use xlink:href="#s1" x="95" y="175" fill="#9933CC" />
    <use xlink:href="#s1" x="100" y="175" fill="#9933CC" />
    <use xlink:href="#s1" x="110" y="175" fill="#9933CC" />
    <use xlink:href="#s1" x="115" y="175" fill="#9933CC" />
    <use xlink:href="#s1" x="120" y="175" fill="#9933CC" />
    <use xlink:href="#s1" x="130" y="175" fill="#9933CC" />
    <use xlink:href="#s1" x="135" y="175" fill="#9933CC" />
    <use xlink:href="#s1" x="140" y="175" fill="#9933CC" />
    <use xlink:href="#s1" x="145" y="175" fill="#9933CC" />
    <use xlink:href="#s1" x="155" y="175" fill="#9933CC" />
    <use xlink:href="#s1" x="160" y="175" fill="#9933CC" />
    <use xlink:href="#s1" x="165" y="175" fill="#9933CC" />
    <use xlink:href="#s1" x="20" y="180" fill="#9933CC" />
    <use xlink:href="#s1" x="25" y="180" fill="#9933CC" />
    <use xlink:href="#s1" x="30" y="180" fill="#9933CC" />
    <use xlink:href="#s1" x="35" y="180" fill="#9933CC" />
    <use xlink:href="#s1" x="40" y="180" fill="#9933CC" />
    <use xlink:href="#s1" x="45" y="180" fill="#9933CC" />
    <use xlink:href="#s1" x="50" y="180" fill="#9933CC" />
    <use xlink:href="#s1" x="70" y="180" fill="#9933CC" />
    <use xlink:href="#s1" x="75" y="180" fill="#9933CC" />
    <use xlink:href="#s1" x="80" y="180" fill="#9933CC" />
    <use xlink:href="#s1" x="90" y="180" fill="#9933CC" />
    <use xlink:href="#s1" x="115" y="180" fill="#9933CC" />
    <use xlink:href="#s1" x="120" y="180" fill="#9933CC" />
    <use xlink:href="#s1" x="130" y="180" fill="#9933CC" />
    <use xlink:href="#s1" x="135" y="180" fill="#9933CC" />
    <use xlink:href="#s1" x="140" y="180" fill="#9933CC" />
    <use xlink:href="#s1" x="150" y="180" fill="#9933CC" />
    <use xlink:href="#s1" x="155" y="180" fill="#9933CC" />
    <use xlink:href="#s1" x="165" y="180" fill="#9933CC" />
    <use xlink:href="#s1" x="170" y="180" fill="#9933CC" />
    <use xlink:href="#s1" x="180" y="180" fill="#9933CC" />
  </symbol>

  <use xlink:href="#default" />
</svg>
