<svg
    version="1.1"
    xmlns="http://www.w3.org/2000/svg"
    xmlns:xlink="http://www.w3.org/1999/xlink"
    width="205" height="205"
    >
  <defs>
    <rect id="s1" width="205" height="205" />
    <rect id="s2" width="5" height="5" />
  </defs>

  <symbol id="default">
    <use xlink:href="#s1" fill="white" />
    <use xlink:href="#s2" x="20" y="20" fill="black" />
    <use xlink:href="#s2" x="25" y="20" fill="black" />
    <use xlink:href="#s2" x="20" y="25" fill="black" />
    <use xlink:href="#s2" x="20" y="30" fill="black" />
    <use xlink:href="#s2" x="30" y="20" fill="black" />
    <use xlink:href="#s2" x="35" y="20" fill="black" />
    <use xlink:href="#s2" x="20" y="35" fill="black" />
    <use xlink:href="#s2" x="20" y="40" fill="black" />
    <use xlink:href="#s2" x="30" y="30" fill="black" />
    <use xlink:href="#s2" x="40" y="20" fill="black" />
    <use xlink:href="#s2" x="45" y="20" fill="black" />
    <use xlink:href="#s2" x="35" y="30" fill="black" />
    <use xlink:href="#s2" x="20" y="45" fill="black" />
    <use xlink:href="#s2" x="30" y="35" fill="black" />
    <use xlink:href="#s2" x="50" y="20" fill="black" />
    <use xlink:href="#s2" x="35" y="35" fill="black" />
    <use xlink:href="#s2" x="20" y="50" fill="black" />
    <use xlink:href="#s2" x="30" y="40" fill="black" />
    <use xlink:href="#s2" x="40" y="30" fill="black" />
    <use xlink:href="#s2" x="40" y="35" fill="black" />
    <use xlink:href="#s2" x="50" y="25" fill="black" />
    <use xlink:href="#s2" x="25" y="50" fill="black" />
    <use xlink:href="#s2" x="35" y="40" fill="black" />
    <use xlink:href="#s2" x="50" y="30" fill="black" />
    <use xlink:href="#s2" x="30" y="50" fill="black" />
    <use xlink:href="#s2" x="40" y="40" fill="black" />
    <use xlink:href="#s2" x="50" y="35" fill="black" />
    <use xlink:href="#s2" x="25" y="60" fill="black" />
    <use xlink:href="#s2" x="35" y="50" fill="black" />
    <use xlink:href="#s2" x="20" y="65" fill="black" />
    <use xlink:href="#s2" x="50" y="40" fill="black" />
    <use xlink:href="#s2" x="25" y="65" fill="black" />
    <use xlink:href="#s2" x="65" y="25" fill="black" />
    <use xlink:href="#s2" x="20" y="70" fill="black" />
    <use xlink:href="#s2" x="40" y="50" fill="black" />
    <use xlink:href="#s2" x="70" y="20" fill="black" />
    <use xlink:href="#s2" x="45" y="50" fill="black" />
    <use xlink:href="#s2" x="70" y="25" fill="black" />
    <use xlink:href="#s2" x="50" y="45" fill="black" />
    <use xlink:href="#s2" x="30" y="65" fill="black" />
    <use xlink:href="#s2" x="80" y="20" fill="black" />
    <use xlink:href="#s2" x="35" y="65" fill="black" />
    <use xlink:href="#s2" x="20" y="80" fill="black" />
    <use xlink:href="#s2" x="60" y="40" fill="black" />
    <use xlink:href="#s2" x="75" y="25" fill="black" />
    <use xlink:href="#s2" x="50" y="50" fill="black" />
    <use xlink:href="#s2" x="45" y="60" fill="black" />
    <use xlink:href="#s2" x="70" y="35" fill="black" />
    <use xlink:href="#s2" x="25" y="80" fill="black" />
    <use xlink:href="#s2" x="65" y="40" fill="black" />
    <use xlink:href="#s2" x="35" y="70" fill="black" />
    <use xlink:href="#s2" x="60" y="45" fill="black" />
    <use xlink:href="#s2" x="80" y="30" fill="black" />
    <use xlink:href="#s2" x="25" y="85" fill="black" />
    <use xlink:href="#s2" x="65" y="45" fill="black" />
    <use xlink:href="#s2" x="35" y="75" fill="black" />
    <use xlink:href="#s2" x="90" y="20" fill="black" />
    <use xlink:href="#s2" x="20" y="90" fill="black" />
    <use xlink:href="#s2" x="60" y="50" fill="black" />
    <use xlink:href="#s2" x="75" y="35" fill="black" />
    <use xlink:href="#s2" x="85" y="25" fill="black" />
    <use xlink:href="#s2" x="40" y="70" fill="black" />
    <use xlink:href="#s2" x="70" y="40" fill="black" />
    <use xlink:href="#s2" x="50" y="60" fill="black" />
    <use xlink:href="#s2" x="45" y="70" fill="black" />
    <use xlink:href="#s2" x="85" y="30" fill="black" />
    <use xlink:href="#s2" x="95" y="20" fill="black" />
    <use xlink:href="#s2" x="55" y="60" fill="black" />
    <use xlink:href="#s2" x="25" y="90" fill="black" />
    <use xlink:href="#s2" x="35" y="80" fill="black" />
    <use xlink:href="#s2" x="20" y="95" fill="black" />
    <use xlink:href="#s2" x="60" y="55" fill="black" />
    <use xlink:href="#s2" x="65" y="55" fill="black" />
    <use xlink:href="#s2" x="90" y="30" fill="black" />
    <use xlink:href="#s2" x="20" y="100" fill="black" />
    <use xlink:href="#s2" x="30" y="90" fill="black" />
    <use xlink:href="#s2" x="70" y="50" fill="black" />
    <use xlink:href="#s2" x="95" y="25" fill="black" />
    <use xlink:href="#s2" x="50" y="70" fill="black" />
    <use xlink:href="#s2" x="70" y="55" fill="black" />
    <use xlink:href="#s2" x="65" y="60" fill="black" />
    <use xlink:href="#s2" x="80" y="45" fill="black" />
    <use xlink:href="#s2" x="90" y="35" fill="black" />
    <use xlink:href="#s2" x="25" y="100" fill="black" />
    <use xlink:href="#s2" x="35" y="90" fill="black" />
    <use xlink:href="#s2" x="20" y="105" fill="black" />
    <use xlink:href="#s2" x="60" y="65" fill="black" />
    <use xlink:href="#s2" x="105" y="20" fill="black" />
    <use xlink:href="#s2" x="30" y="95" fill="black" />
    <use xlink:href="#s2" x="80" y="50" fill="black" />
    <use xlink:href="#s2" x="25" y="105" fill="black" />
    <use xlink:href="#s2" x="90" y="40" fill="black" />
    <use xlink:href="#s2" x="35" y="95" fill="black" />
    <use xlink:href="#s2" x="105" y="25" fill="black" />
    <use xlink:href="#s2" x="100" y="30" fill="black" />
    <use xlink:href="#s2" x="60" y="70" fill="black" />
    <use xlink:href="#s2" x="75" y="55" fill="black" />
    <use xlink:href="#s2" x="30" y="100" fill="black" />
    <use xlink:href="#s2" x="110" y="20" fill="black" />
    <use xlink:href="#s2" x="45" y="85" fill="black" />
    <use xlink:href="#s2" x="70" y="60" fill="black" />
    <use xlink:href="#s2" x="95" y="35" fill="black" />
    <use xlink:href="#s2" x="50" y="80" fill="black" />
    <use xlink:href="#s2" x="45" y="90" fill="black" />
    <use xlink:href="#s2" x="70" y="65" fill="black" />
    <use xlink:href="#s2" x="55" y="80" fill="black" />
    <use xlink:href="#s2" x="60" y="75" fill="black" />
    <use xlink:href="#s2" x="20" y="115" fill="black" />
    <use xlink:href="#s2" x="100" y="35" fill="black" />
    <use xlink:href="#s2" x="105" y="30" fill="black" />
    <use xlink:href="#s2" x="30" y="105" fill="black" />
    <use xlink:href="#s2" x="90" y="50" fill="black" />
    <use xlink:href="#s2" x="60" y="80" fill="black" />
    <use xlink:href="#s2" x="45" y="95" fill="black" />
    <use xlink:href="#s2" x="40" y="100" fill="black" />
    <use xlink:href="#s2" x="55" y="85" fill="black" />
    <use xlink:href="#s2" x="120" y="20" fill="black" />
    <use xlink:href="#s2" x="95" y="45" fill="black" />
    <use xlink:href="#s2" x="50" y="90" fill="black" />
    <use xlink:href="#s2" x="85" y="60" fill="black" />
    <use xlink:href="#s2" x="45" y="100" fill="black" />
    <use xlink:href="#s2" x="110" y="35" fill="black" />
    <use xlink:href="#s2" x="125" y="20" fill="black" />
    <use xlink:href="#s2" x="80" y="65" fill="black" />
    <use xlink:href="#s2" x="25" y="120" fill="black" />
    <use xlink:href="#s2" x="65" y="80" fill="black" />
    <use xlink:href="#s2" x="90" y="55" fill="black" />
    <use xlink:href="#s2" x="60" y="85" fill="black" />
    <use xlink:href="#s2" x="35" y="110" fill="black" />
    <use xlink:href="#s2" x="20" y="125" fill="black" />
    <use xlink:href="#s2" x="115" y="30" fill="black" />
    <use xlink:href="#s2" x="105" y="45" fill="black" />
    <use xlink:href="#s2" x="100" y="50" fill="black" />
    <use xlink:href="#s2" x="30" y="120" fill="black" />
    <use xlink:href="#s2" x="115" y="35" fill="black" />
    <use xlink:href="#s2" x="40" y="110" fill="black" />
    <use xlink:href="#s2" x="55" y="95" fill="black" />
    <use xlink:href="#s2" x="70" y="80" fill="black" />
    <use xlink:href="#s2" x="125" y="25" fill="black" />
    <use xlink:href="#s2" x="50" y="100" fill="black" />
    <use xlink:href="#s2" x="25" y="125" fill="black" />
    <use xlink:href="#s2" x="55" y="100" fill="black" />
    <use xlink:href="#s2" x="120" y="35" fill="black" />
    <use xlink:href="#s2" x="80" y="75" fill="black" />
    <use xlink:href="#s2" x="25" y="130" fill="black" />
    <use xlink:href="#s2" x="90" y="65" fill="black" />
    <use xlink:href="#s2" x="60" y="95" fill="black" />
    <use xlink:href="#s2" x="20" y="135" fill="black" />
    <use xlink:href="#s2" x="100" y="55" fill="black" />
    <use xlink:href="#s2" x="75" y="80" fill="black" />
    <use xlink:href="#s2" x="30" y="125" fill="black" />
    <use xlink:href="#s2" x="110" y="45" fill="black" />
    <use xlink:href="#s2" x="115" y="40" fill="black" />
    <use xlink:href="#s2" x="90" y="70" fill="black" />
    <use xlink:href="#s2" x="130" y="30" fill="black" />
    <use xlink:href="#s2" x="20" y="140" fill="black" />
    <use xlink:href="#s2" x="30" y="130" fill="black" />
    <use xlink:href="#s2" x="140" y="20" fill="black" />
    <use xlink:href="#s2" x="85" y="75" fill="black" />
    <use xlink:href="#s2" x="110" y="50" fill="black" />
    <use xlink:href="#s2" x="40" y="120" fill="black" />
    <use xlink:href="#s2" x="70" y="90" fill="black" />
    <use xlink:href="#s2" x="125" y="35" fill="black" />
    <use xlink:href="#s2" x="95" y="65" fill="black" />
    <use xlink:href="#s2" x="50" y="110" fill="black" />
    <use xlink:href="#s2" x="40" y="125" fill="black" />
    <use xlink:href="#s2" x="55" y="110" fill="black" />
    <use xlink:href="#s2" x="120" y="45" fill="black" />
    <use xlink:href="#s2" x="25" y="140" fill="black" />
    <use xlink:href="#s2" x="135" y="30" fill="black" />
    <use xlink:href="#s2" x="65" y="100" fill="black" />
    <use xlink:href="#s2" x="105" y="60" fill="black" />
    <use xlink:href="#s2" x="140" y="25" fill="black" />
    <use xlink:href="#s2" x="45" y="120" fill="black" />
    <use xlink:href="#s2" x="135" y="35" fill="black" />
    <use xlink:href="#s2" x="90" y="80" fill="black" />
    <use xlink:href="#s2" x="60" y="110" fill="black" />
    <use xlink:href="#s2" x="150" y="20" fill="black" />
    <use xlink:href="#s2" x="20" y="150" fill="black" />
    <use xlink:href="#s2" x="75" y="95" fill="black" />
    <use xlink:href="#s2" x="115" y="55" fill="black" />
    <use xlink:href="#s2" x="140" y="30" fill="black" />
    <use xlink:href="#s2" x="45" y="125" fill="black" />
    <use xlink:href="#s2" x="85" y="85" fill="black" />
    <use xlink:href="#s2" x="55" y="115" fill="black" />
    <use xlink:href="#s2" x="125" y="45" fill="black" />
    <use xlink:href="#s2" x="120" y="50" fill="black" />
    <use xlink:href="#s2" x="50" y="120" fill="black" />
    <use xlink:href="#s2" x="80" y="90" fill="black" />
    <use xlink:href="#s2" x="110" y="65" fill="black" />
    <use xlink:href="#s2" x="70" y="105" fill="black" />
    <use xlink:href="#s2" x="55" y="120" fill="black" />
    <use xlink:href="#s2" x="95" y="80" fill="black" />
    <use xlink:href="#s2" x="120" y="55" fill="black" />
    <use xlink:href="#s2" x="25" y="150" fill="black" />
    <use xlink:href="#s2" x="90" y="85" fill="black" />
    <use xlink:href="#s2" x="130" y="45" fill="black" />
    <use xlink:href="#s2" x="35" y="140" fill="black" />
    <use xlink:href="#s2" x="20" y="155" fill="black" />
    <use xlink:href="#s2" x="150" y="25" fill="black" />
    <use xlink:href="#s2" x="60" y="115" fill="black" />
    <use xlink:href="#s2" x="105" y="70" fill="black" />
    <use xlink:href="#s2" x="75" y="100" fill="black" />
    <use xlink:href="#s2" x="155" y="20" fill="black" />
    <use xlink:href="#s2" x="140" y="35" fill="black" />
    <use xlink:href="#s2" x="45" y="130" fill="black" />
    <use xlink:href="#s2" x="135" y="45" fill="black" />
    <use xlink:href="#s2" x="65" y="115" fill="black" />
    <use xlink:href="#s2" x="130" y="50" fill="black" />
    <use xlink:href="#s2" x="90" y="90" fill="black" />
    <use xlink:href="#s2" x="60" y="120" fill="black" />
    <use xlink:href="#s2" x="100" y="80" fill="black" />
    <use xlink:href="#s2" x="150" y="30" fill="black" />
    <use xlink:href="#s2" x="20" y="160" fill="black" />
    <use xlink:href="#s2" x="75" y="105" fill="black" />
    <use xlink:href="#s2" x="30" y="150" fill="black" />
    <use xlink:href="#s2" x="140" y="40" fill="black" />
    <use xlink:href="#s2" x="115" y="65" fill="black" />
    <use xlink:href="#s2" x="85" y="95" fill="black" />
    <use xlink:href="#s2" x="40" y="140" fill="black" />
    <use xlink:href="#s2" x="70" y="110" fill="black" />
    <use xlink:href="#s2" x="55" y="125" fill="black" />
    <use xlink:href="#s2" x="120" y="60" fill="black" />
    <use xlink:href="#s2" x="125" y="55" fill="black" />
    <use xlink:href="#s2" x="95" y="85" fill="black" />
    <use xlink:href="#s2" x="50" y="130" fill="black" />
    <use xlink:href="#s2" x="160" y="20" fill="black" />
    <use xlink:href="#s2" x="80" y="100" fill="black" />
    <use xlink:href="#s2" x="95" y="90" fill="black" />
    <use xlink:href="#s2" x="120" y="65" fill="black" />
    <use xlink:href="#s2" x="165" y="20" fill="black" />
    <use xlink:href="#s2" x="35" y="150" fill="black" />
    <use xlink:href="#s2" x="20" y="165" fill="black" />
    <use xlink:href="#s2" x="150" y="35" fill="black" />
    <use xlink:href="#s2" x="60" y="125" fill="black" />
    <use xlink:href="#s2" x="105" y="80" fill="black" />
    <use xlink:href="#s2" x="115" y="70" fill="black" />
    <use xlink:href="#s2" x="140" y="45" fill="black" />
    <use xlink:href="#s2" x="85" y="100" fill="black" />
    <use xlink:href="#s2" x="65" y="125" fill="black" />
    <use xlink:href="#s2" x="60" y="130" fill="black" />
    <use xlink:href="#s2" x="150" y="40" fill="black" />
    <use xlink:href="#s2" x="20" y="170" fill="black" />
    <use xlink:href="#s2" x="30" y="160" fill="black" />
    <use xlink:href="#s2" x="115" y="75" fill="black" />
    <use xlink:href="#s2" x="140" y="50" fill="black" />
    <use xlink:href="#s2" x="85" y="105" fill="black" />
    <use xlink:href="#s2" x="110" y="80" fill="black" />
    <use xlink:href="#s2" x="40" y="150" fill="black" />
    <use xlink:href="#s2" x="170" y="20" fill="black" />
    <use xlink:href="#s2" x="55" y="135" fill="black" />
    <use xlink:href="#s2" x="125" y="65" fill="black" />
    <use xlink:href="#s2" x="95" y="95" fill="black" />
    <use xlink:href="#s2" x="50" y="140" fill="black" />
    <use xlink:href="#s2" x="160" y="30" fill="black" />
    <use xlink:href="#s2" x="80" y="110" fill="black" />
    <use xlink:href="#s2" x="120" y="75" fill="black" />
    <use xlink:href="#s2" x="95" y="100" fill="black" />
    <use xlink:href="#s2" x="175" y="20" fill="black" />
    <use xlink:href="#s2" x="160" y="35" fill="black" />
    <use xlink:href="#s2" x="165" y="30" fill="black" />
    <use xlink:href="#s2" x="135" y="60" fill="black" />
    <use xlink:href="#s2" x="130" y="65" fill="black" />
    <use xlink:href="#s2" x="90" y="105" fill="black" />
    <use xlink:href="#s2" x="35" y="160" fill="black" />
    <use xlink:href="#s2" x="20" y="175" fill="black" />
    <use xlink:href="#s2" x="150" y="45" fill="black" />
    <use xlink:href="#s2" x="105" y="90" fill="black" />
    <use xlink:href="#s2" x="75" y="120" fill="black" />
    <use xlink:href="#s2" x="30" y="165" fill="black" />
    <use xlink:href="#s2" x="45" y="150" fill="black" />
    <use xlink:href="#s2" x="65" y="135" fill="black" />
    <use xlink:href="#s2" x="180" y="20" fill="black" />
    <use xlink:href="#s2" x="100" y="100" fill="black" />
    <use xlink:href="#s2" x="90" y="110" fill="black" />
    <use xlink:href="#s2" x="35" y="165" fill="black" />
    <use xlink:href="#s2" x="60" y="140" fill="black" />
    <use xlink:href="#s2" x="20" y="180" fill="black" />
    <use xlink:href="#s2" x="150" y="50" fill="black" />
    <use xlink:href="#s2" x="105" y="95" fill="black" />
    <use xlink:href="#s2" x="30" y="170" fill="black" />
    <use xlink:href="#s2" x="85" y="115" fill="black" />
    <use xlink:href="#s2" x="40" y="160" fill="black" />
    <use xlink:href="#s2" x="170" y="30" fill="black" />
    <use xlink:href="#s2" x="95" y="105" fill="black" />
    <use xlink:href="#s2" x="50" y="150" fill="black" />
    <use xlink:href="#s2" x="160" y="40" fill="black" />
    <use xlink:href="#s2" x="165" y="35" fill="black" />
    <use xlink:href="#s2" x="135" y="65" fill="black" />
    <use xlink:href="#s2" x="145" y="60" fill="black" />
    <use xlink:href="#s2" x="40" y="165" fill="black" />
    <use xlink:href="#s2" x="70" y="135" fill="black" />
    <use xlink:href="#s2" x="170" y="35" fill="black" />
    <use xlink:href="#s2" x="125" y="80" fill="black" />
    <use xlink:href="#s2" x="50" y="155" fill="black" />
    <use xlink:href="#s2" x="25" y="180" fill="black" />
    <use xlink:href="#s2" x="165" y="40" fill="black" />
    <use xlink:href="#s2" x="135" y="70" fill="black" />
    <use xlink:href="#s2" x="180" y="25" fill="black" />
    <use xlink:href="#s2" x="90" y="115" fill="black" />
    <use xlink:href="#s2" x="130" y="75" fill="black" />
    <use xlink:href="#s2" x="35" y="170" fill="black" />
    <use xlink:href="#s2" x="100" y="105" fill="black" />
    <use xlink:href="#s2" x="105" y="100" fill="black" />
    <use xlink:href="#s2" x="75" y="130" fill="black" />
    <use xlink:href="#s2" x="155" y="50" fill="black" />
    <use xlink:href="#s2" x="150" y="60" fill="black" />
    <use xlink:href="#s2" x="100" y="110" fill="black" />
    <use xlink:href="#s2" x="105" y="105" fill="black" />
    <use xlink:href="#s2" x="60" y="150" fill="black" />
    <use xlink:href="#s2" x="75" y="135" fill="black" />
    <use xlink:href="#s2" x="30" y="180" fill="black" />
    <use xlink:href="#s2" x="115" y="95" fill="black" />
    <use xlink:href="#s2" x="85" y="125" fill="black" />
    <use xlink:href="#s2" x="110" y="100" fill="black" />
    <use xlink:href="#s2" x="40" y="170" fill="black" />
    <use xlink:href="#s2" x="170" y="40" fill="black" />
    <use xlink:href="#s2" x="70" y="140" fill="black" />
    <use xlink:href="#s2" x="95" y="115" fill="black" />
    <use xlink:href="#s2" x="120" y="90" fill="black" />
    <use xlink:href="#s2" x="50" y="160" fill="black" />
    <use xlink:href="#s2" x="160" y="50" fill="black" />
    <use xlink:href="#s2" x="80" y="130" fill="black" />
    <use xlink:href="#s2" x="180" y="30" fill="black" />
    <use xlink:href="#s2" x="135" y="75" fill="black" />
    <use xlink:href="#s2" x="95" y="120" fill="black" />
    <use xlink:href="#s2" x="120" y="95" fill="black" />
    <use xlink:href="#s2" x="50" y="165" fill="black" />
    <use xlink:href="#s2" x="80" y="135" fill="black" />
    <use xlink:href="#s2" x="165" y="50" fill="black" />
    <use xlink:href="#s2" x="180" y="35" fill="black" />
    <use xlink:href="#s2" x="130" y="85" fill="black" />
    <use xlink:href="#s2" x="35" y="180" fill="black" />
    <use xlink:href="#s2" x="60" y="155" fill="black" />
    <use xlink:href="#s2" x="75" y="140" fill="black" />
    <use xlink:href="#s2" x="155" y="60" fill="black" />
    <use xlink:href="#s2" x="110" y="105" fill="black" />
    <use xlink:href="#s2" x="130" y="90" fill="black" />
    <use xlink:href="#s2" x="100" y="120" fill="black" />
    <use xlink:href="#s2" x="155" y="65" fill="black" />
    <use xlink:href="#s2" x="140" y="80" fill="black" />
    <use xlink:href="#s2" x="85" y="135" fill="black" />
    <use xlink:href="#s2" x="145" y="75" fill="black" />
    <use xlink:href="#s2" x="40" y="180" fill="black" />
    <use xlink:href="#s2" x="170" y="50" fill="black" />
    <use xlink:href="#s2" x="70" y="150" fill="black" />
    <use xlink:href="#s2" x="95" y="125" fill="black" />
    <use xlink:href="#s2" x="120" y="100" fill="black" />
    <use xlink:href="#s2" x="50" y="170" fill="black" />
    <use xlink:href="#s2" x="160" y="60" fill="black" />
    <use xlink:href="#s2" x="80" y="140" fill="black" />
    <use xlink:href="#s2" x="135" y="85" fill="black" />
    <use xlink:href="#s2" x="65" y="155" fill="black" />
    <use xlink:href="#s2" x="180" y="40" fill="black" />
    <use xlink:href="#s2" x="70" y="155" fill="black" />
    <use xlink:href="#s2" x="125" y="100" fill="black" />
    <use xlink:href="#s2" x="175" y="50" fill="black" />
    <use xlink:href="#s2" x="120" y="105" fill="black" />
    <use xlink:href="#s2" x="50" y="175" fill="black" />
    <use xlink:href="#s2" x="180" y="45" fill="black" />
    <use xlink:href="#s2" x="130" y="95" fill="black" />
    <use xlink:href="#s2" x="90" y="135" fill="black" />
    <use xlink:href="#s2" x="100" y="125" fill="black" />
    <use xlink:href="#s2" x="140" y="85" fill="black" />
    <use xlink:href="#s2" x="115" y="110" fill="black" />
    <use xlink:href="#s2" x="45" y="180" fill="black" />
    <use xlink:href="#s2" x="85" y="140" fill="black" />
    <use xlink:href="#s2" x="110" y="115" fill="black" />
    <use xlink:href="#s2" x="145" y="80" fill="black" />
    <use xlink:href="#s2" x="130" y="100" fill="black" />
    <use xlink:href="#s2" x="155" y="75" fill="black" />
    <use xlink:href="#s2" x="70" y="160" fill="black" />
    <use xlink:href="#s2" x="125" y="105" fill="black" />
    <use xlink:href="#s2" x="120" y="110" fill="black" />
    <use xlink:href="#s2" x="50" y="180" fill="black" />
    <use xlink:href="#s2" x="160" y="70" fill="black" />
    <use xlink:href="#s2" x="80" y="150" fill="black" />
    <use xlink:href="#s2" x="180" y="50" fill="black" />
    <use xlink:href="#s2" x="65" y="165" fill="black" />
    <use xlink:href="#s2" x="120" y="115" fill="black" />
    <use xlink:href="#s2" x="165" y="70" fill="black" />
    <use xlink:href="#s2" x="130" y="105" fill="black" />
    <use xlink:href="#s2" x="60" y="175" fill="black" />
    <use xlink:href="#s2" x="155" y="80" fill="black" />
    <use xlink:href="#s2" x="75" y="160" fill="black" />
    <use xlink:href="#s2" x="115" y="120" fill="black" />
    <use xlink:href="#s2" x="145" y="90" fill="black" />
    <use xlink:href="#s2" x="90" y="150" fill="black" />
    <use xlink:href="#s2" x="105" y="135" fill="black" />
    <use xlink:href="#s2" x="75" y="165" fill="black" />
    <use xlink:href="#s2" x="155" y="85" fill="black" />
    <use xlink:href="#s2" x="115" y="125" fill="black" />
    <use xlink:href="#s2" x="140" y="100" fill="black" />
    <use xlink:href="#s2" x="85" y="155" fill="black" />
    <use xlink:href="#s2" x="110" y="130" fill="black" />
    <use xlink:href="#s2" x="170" y="70" fill="black" />
    <use xlink:href="#s2" x="125" y="115" fill="black" />
    <use xlink:href="#s2" x="95" y="145" fill="black" />
    <use xlink:href="#s2" x="175" y="65" fill="black" />
    <use xlink:href="#s2" x="120" y="120" fill="black" />
    <use xlink:href="#s2" x="165" y="75" fill="black" />
    <use xlink:href="#s2" x="135" y="105" fill="black" />
    <use xlink:href="#s2" x="150" y="90" fill="black" />
    <use xlink:href="#s2" x="65" y="175" fill="black" />
    <use xlink:href="#s2" x="70" y="175" fill="black" />
    <use xlink:href="#s2" x="120" y="125" fill="black" />
    <use xlink:href="#s2" x="160" y="85" fill="black" />
    <use xlink:href="#s2" x="165" y="80" fill="black" />
    <use xlink:href="#s2" x="135" y="110" fill="black" />
    <use xlink:href="#s2" x="90" y="155" fill="black" />
    <use xlink:href="#s2" x="105" y="140" fill="black" />
    <use xlink:href="#s2" x="155" y="90" fill="black" />
    <use xlink:href="#s2" x="140" y="105" fill="black" />
    <use xlink:href="#s2" x="85" y="160" fill="black" />
    <use xlink:href="#s2" x="110" y="135" fill="black" />
    <use xlink:href="#s2" x="170" y="75" fill="black" />
    <use xlink:href="#s2" x="130" y="120" fill="black" />
    <use xlink:href="#s2" x="100" y="150" fill="black" />
    <use xlink:href="#s2" x="105" y="145" fill="black" />
    <use xlink:href="#s2" x="155" y="95" fill="black" />
    <use xlink:href="#s2" x="75" y="175" fill="black" />
    <use xlink:href="#s2" x="85" y="165" fill="black" />
    <use xlink:href="#s2" x="110" y="140" fill="black" />
    <use xlink:href="#s2" x="170" y="80" fill="black" />
    <use xlink:href="#s2" x="125" y="125" fill="black" />
    <use xlink:href="#s2" x="175" y="75" fill="black" />
    <use xlink:href="#s2" x="120" y="130" fill="black" />
    <use xlink:href="#s2" x="165" y="85" fill="black" />
    <use xlink:href="#s2" x="180" y="70" fill="black" />
    <use xlink:href="#s2" x="175" y="80" fill="black" />
    <use xlink:href="#s2" x="165" y="90" fill="black" />
    <use xlink:href="#s2" x="180" y="75" fill="black" />
    <use xlink:href="#s2" x="90" y="165" fill="black" />
    <use xlink:href="#s2" x="150" y="105" fill="black" />
    <use xlink:href="#s2" x="75" y="180" fill="black" />
    <use xlink:href="#s2" x="155" y="100" fill="black" />
    <use xlink:href="#s2" x="140" y="115" fill="black" />
    <use xlink:href="#s2" x="145" y="110" fill="black" />
    <use xlink:href="#s2" x="100" y="160" fill="black" />
    <use xlink:href="#s2" x="105" y="155" fill="black" />
    <use xlink:href="#s2" x="150" y="110" fill="black" />
    <use xlink:href="#s2" x="155" y="105" fill="black" />
    <use xlink:href="#s2" x="115" y="145" fill="black" />
    <use xlink:href="#s2" x="85" y="175" fill="black" />
    <use xlink:href="#s2" x="145" y="115" fill="black" />
    <use xlink:href="#s2" x="175" y="85" fill="black" />
    <use xlink:href="#s2" x="120" y="140" fill="black" />
    <use xlink:href="#s2" x="160" y="100" fill="black" />
    <use xlink:href="#s2" x="80" y="180" fill="black" />
    <use xlink:href="#s2" x="180" y="80" fill="black" />
    <use xlink:href="#s2" x="135" y="125" fill="black" />
    <use xlink:href="#s2" x="90" y="170" fill="black" />
    <use xlink:href="#s2" x="170" y="95" fill="black" />
    <use xlink:href="#s2" x="175" y="90" fill="black" />
    <use xlink:href="#s2" x="95" y="170" fill="black" />
    <use xlink:href="#s2" x="120" y="145" fill="black" />
    <use xlink:href="#s2" x="165" y="100" fill="black" />
    <use xlink:href="#s2" x="135" y="130" fill="black" />
    <use xlink:href="#s2" x="90" y="175" fill="black" />
    <use xlink:href="#s2" x="140" y="125" fill="black" />
    <use xlink:href="#s2" x="100" y="170" fill="black" />
    <use xlink:href="#s2" x="150" y="120" fill="black" />
    <use xlink:href="#s2" x="115" y="155" fill="black" />
    <use xlink:href="#s2" x="140" y="130" fill="black" />
    <use xlink:href="#s2" x="175" y="95" fill="black" />
    <use xlink:href="#s2" x="120" y="150" fill="black" />
    <use xlink:href="#s2" x="160" y="110" fill="black" />
    <use xlink:href="#s2" x="165" y="105" fill="black" />
    <use xlink:href="#s2" x="180" y="90" fill="black" />
    <use xlink:href="#s2" x="170" y="105" fill="black" />
    <use xlink:href="#s2" x="175" y="100" fill="black" />
    <use xlink:href="#s2" x="95" y="180" fill="black" />
    <use xlink:href="#s2" x="125" y="150" fill="black" />
    <use xlink:href="#s2" x="160" y="115" fill="black" />
    <use xlink:href="#s2" x="135" y="140" fill="black" />
    <use xlink:href="#s2" x="100" y="175" fill="black" />
    <use xlink:href="#s2" x="150" y="125" fill="black" />
    <use xlink:href="#s2" x="155" y="120" fill="black" />
    <use xlink:href="#s2" x="115" y="160" fill="black" />
    <use xlink:href="#s2" x="140" y="135" fill="black" />
    <use xlink:href="#s2" x="110" y="165" fill="black" />
    <use xlink:href="#s2" x="105" y="175" fill="black" />
    <use xlink:href="#s2" x="150" y="130" fill="black" />
    <use xlink:href="#s2" x="155" y="125" fill="black" />
    <use xlink:href="#s2" x="140" y="140" fill="black" />
    <use xlink:href="#s2" x="125" y="155" fill="black" />
    <use xlink:href="#s2" x="120" y="160" fill="black" />
    <use xlink:href="#s2" x="160" y="120" fill="black" />
    <use xlink:href="#s2" x="175" y="110" fill="black" />
    <use xlink:href="#s2" x="120" y="165" fill="black" />
    <use xlink:href="#s2" x="165" y="120" fill="black" />
    <use xlink:href="#s2" x="130" y="155" fill="black" />
    <use xlink:href="#s2" x="105" y="180" fill="black" />
    <use xlink:href="#s2" x="140" y="145" fill="black" />
    <use xlink:href="#s2" x="145" y="140" fill="black" />
    <use xlink:href="#s2" x="115" y="175" fill="black" />
    <use xlink:href="#s2" x="140" y="150" fill="black" />
    <use xlink:href="#s2" x="170" y="120" fill="black" />
    <use xlink:href="#s2" x="175" y="115" fill="black" />
    <use xlink:href="#s2" x="165" y="125" fill="black" />
    <use xlink:href="#s2" x="130" y="160" fill="black" />
    <use xlink:href="#s2" x="150" y="140" fill="black" />
    <use xlink:href="#s2" x="175" y="120" fill="black" />
    <use xlink:href="#s2" x="165" y="130" fill="black" />
    <use xlink:href="#s2" x="135" y="160" fill="black" />
    <use xlink:href="#s2" x="180" y="115" fill="black" />
    <use xlink:href="#s2" x="155" y="140" fill="black" />
    <use xlink:href="#s2" x="140" y="155" fill="black" />
    <use xlink:href="#s2" x="140" y="160" fill="black" />
    <use xlink:href="#s2" x="125" y="175" fill="black" />
    <use xlink:href="#s2" x="120" y="180" fill="black" />
    <use xlink:href="#s2" x="160" y="140" fill="black" />
    <use xlink:href="#s2" x="165" y="135" fill="black" />
    <use xlink:href="#s2" x="180" y="120" fill="black" />
    <use xlink:href="#s2" x="150" y="150" fill="black" />
    <use xlink:href="#s2" x="175" y="130" fill="black" />
    <use xlink:href="#s2" x="160" y="145" fill="black" />
    <use xlink:href="#s2" x="165" y="140" fill="black" />
    <use xlink:href="#s2" x="130" y="175" fill="black" />
    <use xlink:href="#s2" x="140" y="165" fill="black" />
    <use xlink:href="#s2" x="145" y="160" fill="black" />
    <use xlink:href="#s2" x="145" y="165" fill="black" />
    <use xlink:href="#s2" x="170" y="140" fill="black" />
    <use xlink:href="#s2" x="175" y="135" fill="black" />
    <use xlink:href="#s2" x="160" y="150" fill="black" />
    <use xlink:href="#s2" x="135" y="175" fill="black" />
    <use xlink:href="#s2" x="180" y="130" fill="black" />
    <use xlink:href="#s2" x="150" y="160" fill="black" />
    <use xlink:href="#s2" x="175" y="140" fill="black" />
    <use xlink:href="#s2" x="160" y="155" fill="black" />
    <use xlink:href="#s2" x="165" y="150" fill="black" />
    <use xlink:href="#s2" x="135" y="180" fill="black" />
    <use xlink:href="#s2" x="180" y="135" fill="black" />
    <use xlink:href="#s2" x="155" y="160" fill="black" />
    <use xlink:href="#s2" x="170" y="145" fill="black" />
    <use xlink:href="#s2" x="145" y="175" fill="black" />
    <use xlink:href="#s2" x="170" y="150" fill="black" />
    <use xlink:href="#s2" x="175" y="145" fill="black" />
    <use xlink:href="#s2" x="160" y="160" fill="black" />
    <use xlink:href="#s2" x="165" y="155" fill="black" />
    <use xlink:href="#s2" x="180" y="140" fill="black" />
    <use xlink:href="#s2" x="150" y="170" fill="black" />
    <use xlink:href="#s2" x="160" y="165" fill="black" />
    <use xlink:href="#s2" x="165" y="160" fill="black" />
    <use xlink:href="#s2" x="150" y="175" fill="black" />
    <use xlink:href="#s2" x="155" y="175" fill="black" />
    <use xlink:href="#s2" x="170" y="160" fill="black" />
    <use xlink:href="#s2" x="175" y="155" fill="black" />
    <use xlink:href="#s2" x="180" y="150" fill="black" />
    <use xlink:href="#s2" x="175" y="160" fill="black" />
    <use xlink:href="#s2" x="165" y="170" fill="black" />
    <use xlink:href="#s2" x="180" y="155" fill="black" />
    <use xlink:href="#s2" x="155" y="180" fill="black" />
    <use xlink:href="#s2" x="175" y="165" fill="black" />
    <use xlink:href="#s2" x="165" y="180" fill="black" />
    <use xlink:href="#s2" x="180" y="165" fill="black" />
    <use xlink:href="#s2" x="180" y="170" fill="black" />
    <use xlink:href="#s2" x="180" y="180" fill="black" />
  </symbol>

  <use xlink:href="#default" fill="none" />
</svg>
